<svg width="127" height="40" viewBox="0 0 127 40" fill="none" xmlns="http://www.w3.org/2000/svg">
<path d="M16.8765 16.8803C16.316 16.8803 15.8655 17.3403 15.8655 17.9003C15.8655 18.4603 16.326 18.9203 16.8765 18.9203C17.427 18.9203 17.8974 18.4603 17.8974 17.9003C17.8874 17.3403 17.447 16.8803 16.8765 16.8803Z" fill="white"/>
<path d="M28.7581 7.79006C24.8744 3.92006 17.8979 3.16006 13.2336 6.06006C9.77035 8.21006 8.41909 11.5501 8.02872 15.5401C7.64837 23.0401 12.4729 30.6701 18.7487 35.0201C21.0509 36.6201 21.2611 34.9901 20.7506 34.4601C19.6696 33.3501 17.2273 30.3501 16.887 29.2801C16.1863 26.9801 17.0672 25.5001 19.4594 25.5401C20.8807 25.5701 22.3321 25.4901 23.7234 25.2201C27.5269 24.4801 30.3696 22.4601 31.5206 18.6201C32.7418 14.5001 31.8109 10.8301 28.7581 7.79006ZM19.5895 18.4001C19.4894 18.9601 19.2392 19.4401 18.8388 19.8501C18.5585 20.1401 17.0471 21.6401 16.877 21.8101C16.867 21.8201 16.857 21.8301 16.847 21.8401C16.8369 21.8301 16.8269 21.8201 16.8169 21.8101C16.1763 21.1701 15.5257 20.5201 14.8751 19.8701C14.8151 19.8101 14.755 19.7501 14.705 19.6901C14.3446 19.2501 14.1344 18.7601 14.0744 18.1901C14.0443 17.9201 14.0543 17.6501 14.1044 17.3901C14.2345 16.7501 14.5448 16.2101 15.0353 15.7901C15.4857 15.4101 16.0062 15.2001 16.5967 15.1401C16.857 15.1201 17.1272 15.1301 17.3774 15.1801C18.0381 15.3201 18.5986 15.6401 19.019 16.1601C19.5395 16.8301 19.7196 17.5801 19.5895 18.4001ZM21.4512 18.2301C21.3812 15.6901 19.4294 13.7301 16.877 13.6601C15.6759 13.6301 15.6759 11.7701 16.877 11.8101C20.4403 11.9101 23.2129 14.6601 23.303 18.2301C23.343 19.4201 21.4813 19.4201 21.4512 18.2301ZM24.9045 17.7901C24.7944 13.7101 21.6414 10.5601 17.5576 10.4501C16.3565 10.4201 16.3565 8.56006 17.5576 8.60006C22.6624 8.73006 26.6261 12.7001 26.7562 17.7901C26.7862 18.9801 24.9345 18.9801 24.9045 17.7901Z" fill="white"/>
<path d="M39.5383 11.8198V18.8198L42.8114 15.4198H45.8943L42.3309 18.8998L46.3047 24.8798H43.1617L40.5593 20.6498L39.5584 21.6098V24.8598H36.9559V11.8198H39.5383Z" fill="white"/>
<path d="M49.3279 11.8198V24.8698H46.7355V11.8198H49.3279Z" fill="white"/>
<path d="M50.8896 18.1005C51.1198 17.4905 51.4501 16.9605 51.8705 16.5305C52.3009 16.1005 52.8014 15.7605 53.412 15.5305C54.0025 15.3005 54.6831 15.1705 55.4238 15.1705C56.1645 15.1705 56.8352 15.2905 57.4457 15.5305C58.0463 15.7605 58.5668 16.1005 58.9972 16.5305C59.4276 16.9605 59.7579 17.4805 59.9781 18.1005C60.2083 18.7105 60.3284 19.4005 60.3284 20.1505C60.3284 20.9105 60.2083 21.5905 59.9781 22.1905C59.7479 22.8005 59.4176 23.3205 58.9972 23.7605C58.5668 24.1905 58.0563 24.5305 57.4457 24.7505C56.8452 24.9805 56.1645 25.1005 55.4238 25.1005C54.6831 25.1005 54.0125 24.9805 53.412 24.7505C52.8214 24.5205 52.3009 24.1905 51.8705 23.7605C51.4401 23.3205 51.1098 22.8105 50.8896 22.1905C50.6594 21.5805 50.5393 20.9005 50.5393 20.1505C50.5393 19.4005 50.6494 18.7105 50.8896 18.1005ZM53.2418 21.2605C53.3119 21.6205 53.432 21.9405 53.6121 22.2305C53.7923 22.5105 54.0225 22.7505 54.3128 22.9105C54.6031 23.0805 54.9734 23.1605 55.4138 23.1605C55.8542 23.1605 56.2246 23.0705 56.5249 22.9105C56.8251 22.7305 57.0654 22.5105 57.2355 22.2305C57.4057 21.9505 57.5358 21.6205 57.6059 21.2605C57.6859 20.9005 57.716 20.5305 57.716 20.1505C57.716 19.7705 57.6759 19.4005 57.6059 19.0405C57.5258 18.6705 57.4157 18.3505 57.2355 18.0705C57.0554 17.7905 56.8151 17.5605 56.5249 17.3905C56.2346 17.2105 55.8642 17.1305 55.4138 17.1305C54.9734 17.1305 54.6031 17.2205 54.3128 17.3905C54.0225 17.5705 53.7823 17.8005 53.6121 18.0705C53.432 18.3505 53.3119 18.6705 53.2418 19.0405C53.1617 19.4005 53.1317 19.7805 53.1317 20.1505C53.1417 20.5205 53.1617 20.9005 53.2418 21.2605Z" fill="white"/>
<path d="M67.8652 24.8701V23.5601H67.8051C67.4748 24.1101 67.0444 24.5001 66.5239 24.7501C65.9935 24.9901 65.463 25.1201 64.9124 25.1201C64.2218 25.1201 63.6413 25.0301 63.2009 24.8501C62.7504 24.6701 62.4001 24.4101 62.1499 24.0701C61.8996 23.7401 61.7095 23.3301 61.6094 22.8401C61.4993 22.3601 61.4492 21.8301 61.4492 21.2401V15.4301H64.0516V20.7601C64.0516 21.5401 64.1718 22.1201 64.422 22.5001C64.6622 22.8801 65.0926 23.0701 65.7132 23.0701C66.4239 23.0701 66.9343 22.8601 67.2546 22.4401C67.5749 22.0201 67.7351 21.3301 67.7351 20.3701V15.4101H70.3375V24.8601L67.8652 24.8701Z" fill="white"/>
<path d="M78.4745 23.6698C78.1742 24.1898 77.7739 24.5498 77.2734 24.7798C76.7729 24.9998 76.2224 25.1198 75.6018 25.1198C74.8912 25.1198 74.2806 24.9798 73.7401 24.7098C73.1996 24.4398 72.7692 24.0698 72.4189 23.5898C72.0685 23.1198 71.8183 22.5898 71.6281 21.9698C71.448 21.3598 71.3679 20.7198 71.3679 20.0698C71.3679 19.4398 71.458 18.8198 71.6281 18.2298C71.8083 17.6398 72.0685 17.1198 72.4189 16.6598C72.7692 16.2098 73.2096 15.8398 73.7201 15.5698C74.2506 15.2998 74.8511 15.1598 75.5518 15.1598C76.1123 15.1598 76.6428 15.2798 77.1533 15.5198C77.6638 15.7498 78.0641 16.0998 78.3544 16.5698H78.3944V11.8198H80.9969V24.8698H78.5246V23.6598L78.4745 23.6698ZM78.3644 18.9898C78.2944 18.6298 78.1742 18.3198 77.9841 18.0398C77.8039 17.7698 77.5837 17.5398 77.3034 17.3698C77.0232 17.1998 76.6728 17.1198 76.2424 17.1198C75.812 17.1198 75.4517 17.2098 75.1614 17.3698C74.8712 17.5498 74.6309 17.7698 74.4608 18.0498C74.2806 18.3298 74.1605 18.6498 74.0804 19.0098C74.0003 19.3698 73.9603 19.7398 73.9603 20.1298C73.9603 20.4998 74.0003 20.8598 74.0904 21.2298C74.1805 21.5998 74.3106 21.9198 74.5008 22.2098C74.681 22.4898 74.9312 22.7298 75.2115 22.8998C75.4917 23.0798 75.8421 23.1598 76.2424 23.1598C76.6728 23.1598 77.0232 23.0698 77.3134 22.9098C77.5937 22.7298 77.8339 22.5098 77.9941 22.2298C78.1642 21.9498 78.2843 21.6198 78.3644 21.2598C78.4445 20.8898 78.4745 20.5198 78.4745 20.1298C78.4745 19.7198 78.4345 19.3498 78.3644 18.9898Z" fill="white"/>
<path d="M84.5703 22.5189C84.6904 22.7189 84.8305 22.8889 85.0207 23.0189C85.2009 23.1489 85.411 23.2389 85.6513 23.2989C85.8815 23.3589 86.1417 23.3889 86.392 23.3889C86.5721 23.3889 86.7723 23.3689 86.9625 23.3189C87.1627 23.2789 87.3529 23.2089 87.513 23.1189C87.6832 23.0289 87.8133 22.9089 87.9234 22.7489C88.0335 22.5889 88.0935 22.4089 88.0935 22.1789C88.0935 21.7889 87.8333 21.4989 87.3128 21.2989C86.7923 21.0989 86.0616 20.9089 85.1408 20.7189C84.7604 20.6289 84.3901 20.5389 84.0298 20.4189C83.6694 20.2989 83.3491 20.1589 83.0689 19.9589C82.7886 19.7789 82.5584 19.5289 82.3882 19.2489C82.2181 18.9689 82.138 18.6189 82.138 18.1989C82.138 17.5889 82.2581 17.0889 82.4983 16.6989C82.7386 16.3089 83.0488 15.9989 83.4392 15.7789C83.8296 15.5589 84.27 15.3989 84.7504 15.2989C85.2409 15.2089 85.7313 15.1589 86.2518 15.1589C86.7723 15.1589 87.2628 15.2089 87.7432 15.3089C88.2237 15.4089 88.6641 15.5689 89.0344 15.8089C89.4148 16.0389 89.7251 16.3489 89.9753 16.7289C90.2255 17.1089 90.3757 17.5989 90.4257 18.1789H87.9634C87.9234 17.6789 87.7432 17.3389 87.4029 17.1689C87.0626 16.9889 86.6622 16.9089 86.1918 16.9089C86.0416 16.9089 85.8915 16.9189 85.7113 16.9389C85.5312 16.9589 85.391 16.9989 85.2409 17.0589C85.1008 17.1189 84.9806 17.2089 84.8806 17.3189C84.7805 17.4289 84.7304 17.5889 84.7304 17.7889C84.7304 18.0189 84.8205 18.2089 84.9806 18.3489C85.1608 18.4989 85.371 18.6089 85.6513 18.7089C85.9215 18.7989 86.2318 18.8889 86.5921 18.9489C86.9425 19.0189 87.3028 19.1089 87.6732 19.1889C88.0535 19.2789 88.4138 19.3689 88.7842 19.4989C89.1445 19.6189 89.4648 19.7789 89.7351 19.9889C90.0153 20.1889 90.2456 20.4389 90.4057 20.7389C90.5759 21.0389 90.6559 21.4089 90.6559 21.8489C90.6559 22.4689 90.5258 22.9889 90.2856 23.4189C90.0354 23.8389 89.7151 24.1789 89.3147 24.4289C88.9143 24.6789 88.4439 24.8689 87.9334 24.9689C87.4129 25.0789 86.8924 25.1289 86.3519 25.1289C85.8014 25.1289 85.2609 25.0689 84.7404 24.9589C84.2099 24.8489 83.7495 24.6689 83.3391 24.4089C82.9287 24.1589 82.5984 23.8189 82.3382 23.3989C82.0779 22.9789 81.9278 22.4589 81.9078 21.8189H84.3701C84.4001 22.0789 84.4502 22.3189 84.5703 22.5189Z" fill="white"/>
<path d="M94.1277 15.4189V16.6289H94.1678C94.4881 16.1089 94.8884 15.7389 95.3789 15.5089C95.8694 15.2789 96.3999 15.1589 96.9904 15.1589C97.7311 15.1589 98.3717 15.2989 98.9122 15.5789C99.4527 15.8589 99.8931 16.2289 100.243 16.6989C100.594 17.1689 100.854 17.6989 101.034 18.3189C101.204 18.9289 101.284 19.5789 101.284 20.2489C101.284 20.8789 101.194 21.4989 101.034 22.0789C100.854 22.6589 100.604 23.1789 100.253 23.6389C99.9031 24.0889 99.4727 24.4489 98.9622 24.7189C98.4418 24.9789 97.8412 25.1189 97.1405 25.1189C96.56 25.1189 96.0195 24.9989 95.519 24.7589C95.0186 24.5289 94.6182 24.1789 94.2979 23.7089H94.2579V28.1889H91.6554V15.4189H94.1277ZM97.5009 22.9189C97.7911 22.7389 98.0214 22.5289 98.1915 22.2489C98.3717 21.9789 98.4918 21.6589 98.5619 21.2889C98.6419 20.9189 98.672 20.5489 98.672 20.1789C98.672 19.7989 98.6319 19.4289 98.5519 19.0589C98.4718 18.6889 98.3417 18.3689 98.1615 18.0889C97.9813 17.8089 97.7411 17.5689 97.4608 17.3989C97.1806 17.2189 96.8303 17.1389 96.4099 17.1389C95.9795 17.1389 95.6191 17.2289 95.3389 17.3989C95.0586 17.5789 94.8184 17.8089 94.6482 18.0789C94.468 18.3589 94.3479 18.6789 94.2679 19.0489C94.1978 19.4089 94.1578 19.7889 94.1578 20.1789C94.1578 20.5589 94.1978 20.9289 94.2779 21.2889C94.3579 21.6589 94.4781 21.9689 94.6682 22.2489C94.8484 22.5189 95.0786 22.7489 95.3689 22.9189C95.6592 23.0889 96.0095 23.1689 96.4299 23.1689C96.8603 23.1689 97.2206 23.0789 97.5009 22.9189Z" fill="white"/>
<path d="M102.346 18.1005C102.576 17.4905 102.906 16.9605 103.327 16.5305C103.757 16.1005 104.257 15.7605 104.868 15.5305C105.459 15.3005 106.139 15.1705 106.89 15.1705C107.631 15.1705 108.311 15.2905 108.912 15.5305C109.512 15.7605 110.033 16.1005 110.463 16.5305C110.894 16.9605 111.224 17.4805 111.444 18.1005C111.674 18.7105 111.794 19.4005 111.794 20.1505C111.794 20.9105 111.674 21.5905 111.444 22.1905C111.214 22.8005 110.884 23.3205 110.463 23.7605C110.033 24.1905 109.522 24.5305 108.912 24.7505C108.311 24.9805 107.631 25.1005 106.89 25.1005C106.149 25.1005 105.479 24.9805 104.868 24.7505C104.277 24.5205 103.757 24.1905 103.327 23.7605C102.896 23.3205 102.566 22.8105 102.346 22.1905C102.115 21.5805 101.995 20.9005 101.995 20.1505C101.995 19.4005 102.105 18.7105 102.346 18.1005ZM104.698 21.2605C104.768 21.6205 104.888 21.9405 105.068 22.2305C105.248 22.5105 105.479 22.7505 105.769 22.9105C106.059 23.0805 106.429 23.1605 106.87 23.1605C107.31 23.1605 107.681 23.0705 107.981 22.9105C108.281 22.7305 108.521 22.5105 108.692 22.2305C108.872 21.9505 108.992 21.6205 109.062 21.2605C109.142 20.9005 109.172 20.5305 109.172 20.1505C109.172 19.7705 109.132 19.4005 109.062 19.0405C108.982 18.6705 108.872 18.3505 108.692 18.0705C108.511 17.7905 108.281 17.5605 107.981 17.3905C107.681 17.2105 107.31 17.1305 106.87 17.1305C106.429 17.1305 106.059 17.2205 105.769 17.3905C105.479 17.5705 105.238 17.8005 105.068 18.0705C104.888 18.3505 104.768 18.6705 104.698 19.0405C104.618 19.4005 104.588 19.7805 104.588 20.1505C104.598 20.5205 104.638 20.9005 104.698 21.2605Z" fill="white"/>
<path d="M118.112 15.4189V17.1489H116.21V21.8189C116.21 22.2589 116.28 22.5489 116.42 22.6989C116.57 22.8489 116.861 22.9189 117.301 22.9189C117.451 22.9189 117.581 22.9089 117.721 22.8989C117.862 22.8889 117.982 22.8689 118.102 22.8389V24.8589C117.882 24.8989 117.631 24.9189 117.371 24.9289C117.101 24.9389 116.841 24.9489 116.58 24.9489C116.18 24.9489 115.8 24.9189 115.439 24.8689C115.079 24.8089 114.769 24.6989 114.488 24.5489C114.218 24.3889 113.998 24.1689 113.838 23.8689C113.678 23.5789 113.608 23.1989 113.608 22.7189V17.1389H112.026V15.4089H113.608V12.5889H116.21V15.4189H118.112Z" fill="white"/>
</svg>
